<svg xmlns="http://www.w3.org/2000/svg" width="630" height="630" viewBox="-15.757 -15.08 630 630"><path fill="#FFF" d="M280.009 34.621C398.5 26.405 477.065 84.389 521.987 155.037c22.525 35.422 44.625 89.222 44.727 144.5.109 60.06-19.348 112.071-44.727 150.233-26.082 39.224-59.82 71.62-102.066 92.893-70.617 35.56-169.309 36.531-233.951 2.294-71.991-38.13-127.343-92.553-147.94-186.934-8.243-37.77-9.19-86.572 2.293-128.443 2.695-9.822 7.592-20.159 11.469-29.817 18.629-46.412 50.338-86.77 89.452-114.683 15.717-11.216 34.785-22.371 51.607-29.817 20.932-9.264 56.173-18.494 87.158-20.642z"/><path d="M504.77 306.215c0 111.986-90.781 202.763-202.766 202.763-111.985 0-202.766-90.776-202.766-202.763 0-111.984 90.781-202.768 202.766-202.768 111.983 0 202.766 90.784 202.766 202.768z"/><path d="M280.711 34.621c118.491-8.216 197.056 49.769 241.978 120.416 22.525 35.422 44.625 89.222 44.727 144.5.109 60.06-19.348 112.071-44.727 150.233-26.082 39.224-59.82 71.62-102.066 92.893-70.617 35.56-169.309 36.531-233.951 2.294-71.991-38.129-127.342-92.552-147.939-186.933-8.243-37.77-9.19-86.572 2.293-128.443 2.695-9.822 7.592-20.159 11.469-29.817 18.629-46.412 50.338-86.77 89.452-114.683 15.717-11.216 34.785-22.371 51.607-29.817 20.931-9.265 56.173-18.495 87.157-20.643zm-40.139 19.496c-44.011 11.411-76.281 31.853-104.36 53.9-40.489 31.792-66.301 76.157-81.424 129.59-16.824 59.447-6.017 131.384 17.203 176.61 24.079 46.901 56.41 83.308 102.066 108.948 44.419 24.945 106.894 40.962 172.025 28.67 57.865-10.92 101.814-36.129 137.617-73.396 47.902-49.862 86.402-141.702 60.783-238.538-6.85-25.881-15.803-52.855-29.818-75.69-7.572-12.336-18.686-24.473-29.818-36.698-42.014-46.141-109.922-85.901-197.253-80.278-16.621 1.07-31.227 2.786-47.021 6.882z"/><g fill="none" stroke="#FFF" stroke-width="2"><path d="M314.266 549.395l234.307-234.301M293.782 530.839L529.11 295.515M273.298 512.286l236.353-236.348M252.814 493.729L490.188 256.36M232.332 475.175l238.397-238.394M211.848 456.624l239.418-239.42M191.364 438.064l240.441-240.438M170.88 419.51l241.464-241.462M150.396 400.955L392.877 158.47M129.913 382.398l243.509-243.505M109.429 363.845l244.53-244.53M88.945 345.289L334.5 99.737M68.461 326.734L315.038 80.159M47.977 308.179l247.6-247.597"/><g><path d="M47.897 310.547l238.989 239M67.279 290.89l239.454 239.464M86.66 271.231L326.579 511.16M106.041 251.573l240.383 240.395M125.42 231.916l240.85 240.858M144.801 212.257l241.317 241.324M164.182 192.6l241.781 241.788M183.563 172.941l242.246 242.252M202.943 153.283L445.655 396M222.324 133.625L465.5 376.805M241.705 113.967l243.641 243.646M261.085 94.31l244.107 244.11M280.466 74.652l244.572 244.576M299.848 54.994l245.035 245.039"/></g></g><path d="M470.381 128.66c-21.088-21.088-47.014-40.091-77.984-51.607-32.1-11.937-68.414-21.999-111.241-18.35-68.222 5.815-116.123 36.425-152.527 72.25-25.5 25.093-44.68 55.841-57.341 91.746-18.59 52.719-17.461 114.945 3.44 168.583 17.83 45.753 47.011 82.655 88.305 111.241 38.82 26.875 94.536 47.719 157.114 42.434 76.219-6.438 131.986-45.541 168.582-90.599 9.363-11.527 18.674-24.557 24.082-40.139 5.301-11.228 7.895-18.859 10.322-22.937 10.164-22.776 15.551-46.808 17.201-73.396 5.083-81.778-26.382-145.655-69.953-189.226zm-22.463 249.153c-.145.312-.275.602-.428.922-3.781 10.82-10.295 19.867-16.84 27.873-25.596 31.287-64.592 58.439-117.893 62.911-43.763 3.668-82.726-10.804-109.873-29.466-23.59-16.217-41.522-36.29-54.096-60.414-.767-1.452-8.069-18.276-8.091-19.017-9.962-30.899-10.826-80.583-.602-110.399 6.823-19.899 18.196-41.43 33.257-58.488 20.796-23.553 41.607-38.646 74.544-49.313 15.039-4.871 28.501-9.829 47.019-10.321 45.155-1.202 91.14 19.072 115.829 41.285 22.689 20.412 48.547 60.174 55.049 97.479 6.692 38.397-.449 75.885-17.875 106.948z"/><g fill="#FFF"><path d="M164.058 144.994l-.065-.088c-6.521-8.938-4.607-21.44 4.997-28.45 9.604-7.009 21.942-5.042 28.463 3.895l.065.088c6.521 8.938 4.608 21.441-4.997 28.45-9.604 7.009-21.941 5.043-28.463-3.895zm24.721-18.04l-.065-.089c-3.277-4.49-9.378-6.035-14.135-2.563-4.713 3.439-5.08 9.567-1.803 14.058l.065.089c3.278 4.49 9.378 6.035 14.091 2.596 4.758-3.472 5.124-9.6 1.847-14.091zM226.933 86.415l9.801-3.145 27.476 31.94-10.902 3.498-4.775-5.694-14.152 4.541-.518 7.393-10.692 3.43 3.762-41.963zm16.125 19.627l-7.435-9.119-.794 11.759 8.229-2.64zM281.859 96.024l.086-21.633 10.844.043-.085 21.413c-.022 5.56 2.775 8.213 7.069 8.23 4.294.017 7.11-2.503 7.132-7.898l.086-21.688 10.844.043-.084 21.358c-.049 12.44-7.172 17.862-18.126 17.818-10.955-.044-17.813-5.631-17.766-17.686zM356.999 92.244l-11.055-3.374 2.73-8.95 32.324 9.865-2.73 8.95-11.057-3.374-8.516 27.902-10.213-3.117 8.517-27.902zM409.872 102.273l8.889 5.916-7.988 12.006 11.41 7.594 7.99-12.007 8.891 5.917-21.348 32.079-8.891-5.917 8.111-12.19-11.41-7.594-8.111 12.19-8.891-5.917 21.348-32.077z"/><g><path d="M441.276 452.944l.066.087c6.859 8.682 5.424 21.251-3.906 28.621-9.328 7.371-21.734 5.876-28.594-2.806l-.066-.087c-6.859-8.683-5.424-21.251 3.906-28.621 9.328-7.368 21.735-5.875 28.594 2.806zm-24.018 18.974l.068.087c3.447 4.362 9.602 5.673 14.225 2.021 4.578-3.617 4.711-9.755 1.264-14.117l-.068-.087c-3.445-4.362-9.602-5.673-14.18-2.056-4.623 3.652-4.754 9.789-1.309 14.152zM380.997 513.992l-9.654 3.572-28.854-30.699 10.736-3.975 5.021 5.479 13.939-5.159.191-7.407 10.531-3.898-1.91 42.087zm-16.973-18.897l7.828 8.782.275-11.783-8.103 3.001zM325.741 506.665l.953 21.612-10.834.479-.943-21.393c-.246-5.554-3.166-8.069-7.455-7.88-4.291.189-6.983 2.844-6.746 8.232l.957 21.666-10.833.479-.942-21.337c-.549-12.428 6.305-18.186 17.248-18.668 10.942-.484 18.062 4.767 18.595 16.81zM250.465 513.732l11.161 3.013-2.439 9.035-32.635-8.809 2.439-9.036 11.161 3.013 7.604-28.17 10.311 2.784-7.602 28.17zM197.71 505.882l-9.161-5.49 7.415-12.371-11.757-7.048-7.414 12.372-9.16-5.49 19.811-33.053 9.16 5.491-7.528 12.56 11.757 7.047 7.528-12.56 9.16 5.49-19.811 33.052z"/></g></g><path fill="#FFF" stroke="#000" stroke-width="8" d="M220.728 407.841v-32.384l29.568-26.753c49.984-44.704 74.273-70.401 74.978-97.153 0-18.656-11.265-33.44-37.665-33.44-19.712 0-36.96 9.856-48.929 19.008l-15.136-38.368c17.248-13.024 44-23.584 74.977-23.584 51.745 0 80.257 30.272 80.257 71.809 0 38.369-27.808 68.992-60.896 98.562l-21.12 17.601v.703h86.241v44.001H220.728z"/></svg>